# xmcd
#
# Track frame offsets:
#	182
#	10887
#	28150
#	44670
#	98265
#	111617
#	125100
#	142132
#	157592
#	170395
#	183450
#	198840
#	221887
#	237662
#
# Disc length: 3383 seconds
#
# Revision: 2
# Processed by: cddbd v1.5.1PL0 Copyright (c) Steve Scherf et al.
# Submitted via: EasyCDDAExtractor 7.0.6.1
#
DISCID=cc0d350e
DTITLE=Susan Mc Cann - Susan Mc Cann Memories
DYEAR=1900
DGENRE=Celtic
TTITLE0=Softly Softly
TTITLE1=Everbody's somebody's fool/tears on my pillow/lipstick on your collar/
TTITLE1=who's sorry now/que sera sera
TTITLE2=What Ever Happened To old Fashioned Love
TTITLE3=40 shades of green/galway bay/lovely lee/athenry/mourne/irish eyes/inn
TTITLE3=isfree/rare ould times/green glens/tralee
TTITLE4=Dreaming Of A Little Island
TTITLE5=Help Me Make It through The Night
TTITLE6=Bus To La
TTITLE7=Penny Arcade
TTITLE8=If The Whole World Stopped Loving
TTITLE9=Once A Day
TTITLE10=Love Has Joined Us Together
TTITLE11=Since Johnny Went Away
TTITLE12=Darlin'
TTITLE13=ANGELS ROSES AND RAIN
EXTD=
EXTT0=
EXTT1=
EXTT2=
EXTT3=
EXTT4=
EXTT5=
EXTT6=
EXTT7=
EXTT8=
EXTT9=
EXTT10=
EXTT11=
EXTT12=
EXTT13=
PLAYORDER=
